<?xml version="1.0" encoding="utf-8"?>
<!-- Generator: Adobe Illustrator 21.0.0, SVG Export Plug-In . SVG Version: 6.00 Build 0)  -->
<svg version="1.1" id="Camada_1" xmlns="http://www.w3.org/2000/svg" xmlns:xlink="http://www.w3.org/1999/xlink" x="0px" y="0px"
	 viewBox="0 0 136 73" style="enable-background:new 0 0 136 73;" xml:space="preserve">
<style type="text/css">
	.st0{fill:#FF0000;}
</style>
<g>
	<path d="M125.2,66.2c0-0.5-0.1-0.8-0.4-1.1c-0.2-0.3-0.5-0.4-0.8-0.4c-0.3,0-0.6,0.1-0.9,0.4c-0.2,0.3-0.4,0.6-0.4,1.1H125.2z
		 M125.8,66.3v0.3h-3c0,0.5,0.2,0.9,0.4,1.2c0.3,0.3,0.6,0.4,1.1,0.4c0.2,0,0.4,0,0.6-0.1c0.2-0.1,0.4-0.1,0.6-0.2v0.5
		c-0.2,0.1-0.4,0.1-0.6,0.2c-0.2,0-0.4,0.1-0.6,0.1c-0.6,0-1.1-0.2-1.5-0.6c-0.4-0.4-0.5-0.9-0.5-1.6c0-0.7,0.2-1.2,0.5-1.6
		c0.3-0.4,0.8-0.6,1.3-0.6c0.5,0,0.9,0.2,1.2,0.5C125.6,65.2,125.8,65.7,125.8,66.3z M121.1,62.3h0.5v6.3h-0.5v-0.9
		c-0.2,0.3-0.4,0.5-0.6,0.7c-0.2,0.2-0.5,0.2-0.9,0.2c-0.5,0-0.9-0.2-1.2-0.6c-0.3-0.4-0.5-0.9-0.5-1.6c0-0.6,0.2-1.2,0.5-1.6
		c0.3-0.4,0.7-0.6,1.3-0.6c0.3,0,0.6,0.1,0.8,0.2c0.2,0.1,0.4,0.3,0.6,0.6V62.3z M119.8,64.7c-0.4,0-0.7,0.2-0.9,0.5
		c-0.2,0.3-0.3,0.7-0.3,1.3c0,0.5,0.1,1,0.3,1.3c0.2,0.3,0.5,0.5,0.9,0.5c0.4,0,0.7-0.2,0.9-0.5c0.2-0.3,0.4-0.7,0.4-1.2
		c0-0.5-0.1-1-0.3-1.3C120.6,64.9,120.2,64.7,119.8,64.7z M117.6,65.9v2.7h-0.5v-0.7c-0.2,0.3-0.4,0.5-0.6,0.6
		c-0.2,0.1-0.5,0.2-0.8,0.2c-0.4,0-0.7-0.1-1-0.3c-0.2-0.2-0.4-0.5-0.4-0.9c0-0.5,0.2-0.8,0.6-1c0.4-0.3,0.9-0.4,1.6-0.4h0.5
		c0,0,0,0,0-0.1c0,0,0-0.1,0-0.1c0-0.4-0.1-0.6-0.3-0.8c-0.2-0.2-0.4-0.3-0.7-0.3c-0.2,0-0.4,0-0.6,0.1c-0.2,0.1-0.4,0.1-0.6,0.3
		v-0.5c0.2-0.1,0.4-0.2,0.6-0.2c0.2-0.1,0.4-0.1,0.6-0.1c0.5,0,0.8,0.1,1.1,0.4C117.4,65,117.6,65.4,117.6,65.9z M116.4,66.5
		c-0.5,0-0.9,0.1-1.1,0.2c-0.3,0.2-0.4,0.4-0.4,0.7c0,0.2,0.1,0.4,0.2,0.6c0.2,0.2,0.4,0.2,0.6,0.2c0.4,0,0.7-0.1,0.9-0.4
		c0.2-0.2,0.4-0.6,0.4-1v-0.4H116.4z M113.3,62.3h0.5v6.3h-0.5v-0.9c-0.2,0.3-0.4,0.5-0.6,0.7c-0.2,0.2-0.5,0.2-0.9,0.2
		c-0.5,0-0.9-0.2-1.2-0.6c-0.3-0.4-0.5-0.9-0.5-1.6c0-0.6,0.2-1.2,0.5-1.6c0.3-0.4,0.7-0.6,1.3-0.6c0.3,0,0.6,0.1,0.8,0.2
		c0.2,0.1,0.4,0.3,0.6,0.6V62.3z M112,64.7c-0.4,0-0.7,0.2-0.9,0.5c-0.2,0.3-0.3,0.7-0.3,1.3c0,0.5,0.1,1,0.3,1.3
		c0.2,0.3,0.5,0.5,0.9,0.5c0.4,0,0.7-0.2,0.9-0.5c0.2-0.3,0.4-0.7,0.4-1.2c0-0.5-0.1-1-0.3-1.3C112.7,64.9,112.4,64.7,112,64.7z
		 M109.1,62.4h0.6v0.7h-0.6V62.4z M109.1,64.4h0.5v4.2h-0.5V64.4z M108.8,64.5l0,0.5c-0.1-0.1-0.3-0.1-0.4-0.2
		c-0.2,0-0.3-0.1-0.5-0.1c-0.5,0-0.8,0.2-1.1,0.5c-0.3,0.3-0.4,0.7-0.4,1.2c0,0.5,0.1,0.9,0.4,1.2c0.3,0.3,0.6,0.5,1.1,0.5
		c0.2,0,0.3,0,0.5-0.1c0.2,0,0.3-0.1,0.5-0.2l0,0.5c-0.2,0.1-0.3,0.1-0.5,0.1c-0.2,0-0.4,0-0.6,0c-0.6,0-1.1-0.2-1.5-0.6
		c-0.4-0.4-0.6-0.9-0.6-1.6c0-0.6,0.2-1.1,0.6-1.5c0.4-0.4,0.9-0.6,1.5-0.6c0.2,0,0.3,0,0.5,0C108.5,64.4,108.6,64.5,108.8,64.5z
		 M104.6,62.4h0.6v0.7h-0.6V62.4z M104.6,64.4h0.5v4.2h-0.5V64.4z M103.2,63.1v1.3h1v0.4h-1v2.5c0,0.3,0,0.6,0.1,0.7
		c0.1,0.1,0.2,0.2,0.5,0.2c0.1,0,0.1,0,0.2,0c0.1,0,0.1,0,0.2-0.1v0.5c-0.1,0-0.2,0-0.3,0.1c-0.1,0-0.2,0-0.3,0
		c-0.4,0-0.6-0.1-0.8-0.3c-0.2-0.2-0.2-0.5-0.2-1v-2.6h-0.9v-0.4h0.9v-1.1L103.2,63.1z M101.6,65.9v2.7h-0.5v-0.7
		c-0.2,0.3-0.4,0.5-0.6,0.6c-0.2,0.1-0.5,0.2-0.8,0.2c-0.4,0-0.7-0.1-1-0.3c-0.2-0.2-0.4-0.5-0.4-0.9c0-0.5,0.2-0.8,0.6-1
		c0.4-0.3,0.9-0.4,1.6-0.4h0.5c0,0,0,0,0-0.1c0,0,0-0.1,0-0.1c0-0.4-0.1-0.6-0.3-0.8c-0.2-0.2-0.4-0.3-0.7-0.3c-0.2,0-0.4,0-0.6,0.1
		c-0.2,0.1-0.4,0.1-0.6,0.3v-0.5c0.2-0.1,0.4-0.2,0.6-0.2c0.2-0.1,0.4-0.1,0.6-0.1c0.5,0,0.8,0.1,1.1,0.4
		C101.4,65,101.6,65.4,101.6,65.9z M100.4,66.5c-0.5,0-0.9,0.1-1.1,0.2c-0.3,0.2-0.4,0.4-0.4,0.7c0,0.2,0.1,0.4,0.2,0.6
		c0.2,0.2,0.4,0.2,0.6,0.2c0.4,0,0.7-0.1,0.9-0.4c0.2-0.2,0.4-0.6,0.4-1v-0.4H100.4z M98.4,64.4v0.5c-0.1,0-0.1,0-0.2,0
		c0,0-0.1,0-0.1,0c-0.4,0-0.6,0.1-0.8,0.4c-0.2,0.3-0.3,0.6-0.3,1.1v2.2h-0.5v-4.2H97v0.9c0.1-0.3,0.3-0.5,0.5-0.7
		c0.2-0.2,0.5-0.2,0.7-0.2c0,0,0.1,0,0.1,0C98.3,64.3,98.4,64.3,98.4,64.4z M92.9,62.7h1.2c0.6,0,1.1,0.1,1.5,0.4
		c0.3,0.3,0.5,0.7,0.5,1.2c0,0.5-0.2,1-0.6,1.3c-0.4,0.3-0.9,0.5-1.5,0.5h-0.6v2.5h-0.5V62.7z M93.4,63.2v2.4H94
		c0.5,0,0.8-0.1,1.1-0.3c0.3-0.2,0.4-0.5,0.4-0.9c0-0.4-0.1-0.6-0.4-0.9c-0.2-0.2-0.6-0.3-1-0.3H93.4z M87,65.2
		c0.1-0.3,0.3-0.5,0.6-0.7c0.2-0.2,0.5-0.2,0.8-0.2c0.4,0,0.8,0.1,1,0.4c0.2,0.3,0.3,0.7,0.3,1.3v2.6h-0.5v-2.5c0-0.5-0.1-0.8-0.2-1
		c-0.1-0.2-0.4-0.3-0.7-0.3c-0.4,0-0.7,0.1-0.9,0.4c-0.2,0.3-0.3,0.7-0.3,1.2v2.2h-0.5v-2.5c0-0.5-0.1-0.8-0.2-1
		c-0.1-0.2-0.4-0.3-0.7-0.3c-0.4,0-0.7,0.1-0.9,0.4c-0.2,0.3-0.3,0.7-0.3,1.2v2.2h-0.5v-4.2h0.5v0.8c0.1-0.3,0.3-0.5,0.6-0.7
		c0.2-0.2,0.5-0.2,0.8-0.2c0.3,0,0.6,0.1,0.8,0.2C86.7,64.7,86.9,64.9,87,65.2z M81.4,64.3c0.6,0,1.1,0.2,1.4,0.6
		c0.4,0.4,0.5,0.9,0.5,1.6c0,0.7-0.2,1.2-0.5,1.6c-0.4,0.4-0.8,0.6-1.4,0.6c-0.6,0-1.1-0.2-1.4-0.6c-0.4-0.4-0.5-0.9-0.5-1.6
		c0-0.7,0.2-1.2,0.5-1.6C80.3,64.5,80.8,64.3,81.4,64.3z M81.4,64.7c-0.4,0-0.8,0.2-1,0.5C80.1,65.5,80,66,80,66.5
		c0,0.5,0.1,0.9,0.4,1.3c0.3,0.3,0.6,0.5,1,0.5c0.4,0,0.8-0.2,1-0.5c0.3-0.3,0.4-0.7,0.4-1.3c0-0.5-0.1-1-0.4-1.3
		C82.1,64.9,81.8,64.7,81.4,64.7z M79.3,64.5l0,0.5c-0.1-0.1-0.3-0.1-0.4-0.2c-0.2,0-0.3-0.1-0.5-0.1c-0.5,0-0.8,0.2-1.1,0.5
		c-0.3,0.3-0.4,0.7-0.4,1.2c0,0.5,0.1,0.9,0.4,1.2c0.3,0.3,0.6,0.5,1.1,0.5c0.2,0,0.3,0,0.5-0.1c0.2,0,0.3-0.1,0.5-0.2l0,0.5
		c-0.2,0.1-0.3,0.1-0.5,0.1c-0.2,0-0.4,0-0.6,0c-0.6,0-1.1-0.2-1.5-0.6c-0.4-0.4-0.6-0.9-0.6-1.6c0-0.6,0.2-1.1,0.6-1.5
		c0.4-0.4,0.9-0.6,1.5-0.6c0.2,0,0.3,0,0.5,0C79,64.4,79.2,64.5,79.3,64.5z M73.3,66.2c0-0.5-0.1-0.8-0.4-1.1
		c-0.2-0.3-0.5-0.4-0.8-0.4c-0.3,0-0.6,0.1-0.9,0.4c-0.2,0.3-0.4,0.6-0.4,1.1H73.3z M73.8,66.3v0.3h-3c0,0.5,0.2,0.9,0.4,1.2
		c0.3,0.3,0.6,0.4,1.1,0.4c0.2,0,0.4,0,0.6-0.1c0.2-0.1,0.4-0.1,0.6-0.2v0.5c-0.2,0.1-0.4,0.1-0.6,0.2c-0.2,0-0.4,0.1-0.6,0.1
		c-0.6,0-1.1-0.2-1.5-0.6c-0.4-0.4-0.5-0.9-0.5-1.6c0-0.7,0.2-1.2,0.5-1.6c0.3-0.4,0.8-0.6,1.3-0.6c0.5,0,0.9,0.2,1.2,0.5
		C73.7,65.2,73.8,65.7,73.8,66.3z M69.2,62.3h0.5v6.3h-0.5v-0.9c-0.2,0.3-0.4,0.5-0.6,0.7c-0.2,0.2-0.5,0.2-0.9,0.2
		c-0.5,0-0.9-0.2-1.2-0.6c-0.3-0.4-0.5-0.9-0.5-1.6c0-0.6,0.2-1.2,0.5-1.6c0.3-0.4,0.7-0.6,1.3-0.6c0.3,0,0.6,0.1,0.8,0.2
		c0.2,0.1,0.4,0.3,0.6,0.6V62.3z M67.9,64.7c-0.4,0-0.7,0.2-0.9,0.5c-0.2,0.3-0.3,0.7-0.3,1.3c0,0.5,0.1,1,0.3,1.3
		c0.2,0.3,0.5,0.5,0.9,0.5c0.4,0,0.7-0.2,0.9-0.5c0.2-0.3,0.4-0.7,0.4-1.2c0-0.5-0.1-1-0.3-1.3C68.6,64.9,68.3,64.7,67.9,64.7z
		 M65.6,65.9v2.7h-0.5v-0.7c-0.2,0.3-0.4,0.5-0.6,0.6c-0.2,0.1-0.5,0.2-0.8,0.2c-0.4,0-0.7-0.1-1-0.3c-0.2-0.2-0.4-0.5-0.4-0.9
		c0-0.5,0.2-0.8,0.6-1c0.4-0.3,0.9-0.4,1.6-0.4h0.5c0,0,0,0,0-0.1c0,0,0-0.1,0-0.1c0-0.4-0.1-0.6-0.3-0.8c-0.2-0.2-0.4-0.3-0.7-0.3
		c-0.2,0-0.4,0-0.6,0.1c-0.2,0.1-0.4,0.1-0.6,0.3v-0.5c0.2-0.1,0.4-0.2,0.6-0.2c0.2-0.1,0.4-0.1,0.6-0.1c0.5,0,0.8,0.1,1.1,0.4
		C65.5,65,65.6,65.4,65.6,65.9z M64.5,66.5c-0.5,0-0.9,0.1-1.1,0.2c-0.3,0.2-0.4,0.4-0.4,0.7c0,0.2,0.1,0.4,0.2,0.6
		c0.2,0.2,0.4,0.2,0.6,0.2c0.4,0,0.7-0.1,0.9-0.4c0.2-0.2,0.4-0.6,0.4-1v-0.4H64.5z M61.4,62.3h0.5v6.3h-0.5v-0.9
		c-0.2,0.3-0.4,0.5-0.6,0.7c-0.2,0.2-0.5,0.2-0.9,0.2c-0.5,0-0.9-0.2-1.2-0.6c-0.3-0.4-0.5-0.9-0.5-1.6c0-0.6,0.2-1.2,0.5-1.6
		c0.3-0.4,0.7-0.6,1.3-0.6c0.3,0,0.6,0.1,0.8,0.2c0.2,0.1,0.4,0.3,0.6,0.6V62.3z M60.1,64.7c-0.4,0-0.7,0.2-0.9,0.5
		c-0.2,0.3-0.3,0.7-0.3,1.3c0,0.5,0.1,1,0.3,1.3c0.2,0.3,0.5,0.5,0.9,0.5c0.4,0,0.7-0.2,0.9-0.5c0.2-0.3,0.4-0.7,0.4-1.2
		c0-0.5-0.1-1-0.3-1.3C60.8,64.9,60.5,64.7,60.1,64.7z M57.2,62.4h0.6v0.7h-0.6V62.4z M57.2,64.4h0.5v4.2h-0.5V64.4z M55.9,62.3h0.5
		v6.3h-0.5V62.3z M55.1,65.9v2.7h-0.5v-0.7c-0.2,0.3-0.4,0.5-0.6,0.6c-0.2,0.1-0.5,0.2-0.8,0.2c-0.4,0-0.7-0.1-1-0.3
		c-0.2-0.2-0.4-0.5-0.4-0.9c0-0.5,0.2-0.8,0.6-1c0.4-0.3,0.9-0.4,1.6-0.4h0.5c0,0,0,0,0-0.1c0,0,0-0.1,0-0.1c0-0.4-0.1-0.6-0.3-0.8
		c-0.2-0.2-0.4-0.3-0.7-0.3c-0.2,0-0.4,0-0.6,0.1c-0.2,0.1-0.4,0.1-0.6,0.3v-0.5c0.2-0.1,0.4-0.2,0.6-0.2c0.2-0.1,0.4-0.1,0.6-0.1
		c0.5,0,0.8,0.1,1.1,0.4C55,65,55.1,65.4,55.1,65.9z M54,66.5c-0.5,0-0.9,0.1-1.1,0.2c-0.3,0.2-0.4,0.4-0.4,0.7
		c0,0.2,0.1,0.4,0.2,0.6c0.2,0.2,0.4,0.2,0.6,0.2c0.4,0,0.7-0.1,0.9-0.4c0.2-0.2,0.4-0.6,0.4-1v-0.4H54z M48,64.4h0.5v2.4
		c0,0.5,0.1,0.8,0.2,1c0.2,0.2,0.4,0.3,0.8,0.3c0.4,0,0.7-0.2,0.9-0.5c0.2-0.3,0.3-0.8,0.3-1.3v-2h0.5v4.2h-0.5v-0.8
		c-0.2,0.3-0.4,0.5-0.6,0.7c-0.2,0.1-0.5,0.2-0.9,0.2c-0.5,0-0.8-0.1-1-0.4c-0.2-0.3-0.4-0.7-0.4-1.3V64.4z M44.9,63.1
		c-0.6,0-1.1,0.2-1.4,0.7c-0.4,0.5-0.5,1.1-0.5,1.9c0,0.8,0.2,1.4,0.5,1.9c0.4,0.5,0.8,0.7,1.4,0.7c0.6,0,1.1-0.2,1.4-0.7
		c0.4-0.5,0.5-1.1,0.5-1.9c0-0.8-0.2-1.4-0.5-1.9C46,63.3,45.5,63.1,44.9,63.1z M45.9,68.5l1.3,1.2h-0.7l-1.1-1.1c0,0-0.1,0-0.2,0
		c-0.1,0-0.2,0-0.3,0c-0.8,0-1.4-0.3-1.9-0.8c-0.5-0.5-0.7-1.3-0.7-2.2c0-0.9,0.2-1.7,0.7-2.2c0.5-0.5,1.1-0.8,1.9-0.8
		c0.8,0,1.4,0.3,1.9,0.8c0.5,0.5,0.7,1.3,0.7,2.2c0,0.7-0.1,1.3-0.4,1.8C46.8,67.9,46.4,68.3,45.9,68.5z M37.7,64.3
		c0.6,0,1.1,0.2,1.4,0.6c0.4,0.4,0.5,0.9,0.5,1.6c0,0.7-0.2,1.2-0.5,1.6c-0.4,0.4-0.8,0.6-1.4,0.6c-0.6,0-1.1-0.2-1.4-0.6
		c-0.4-0.4-0.5-0.9-0.5-1.6c0-0.7,0.2-1.2,0.5-1.6C36.6,64.5,37.1,64.3,37.7,64.3z M37.7,64.7c-0.4,0-0.8,0.2-1,0.5
		c-0.3,0.3-0.4,0.7-0.4,1.3c0,0.5,0.1,0.9,0.4,1.3c0.3,0.3,0.6,0.5,1,0.5c0.4,0,0.8-0.2,1-0.5c0.3-0.3,0.4-0.7,0.4-1.3
		c0-0.5-0.1-1-0.4-1.3C38.5,64.9,38.1,64.7,37.7,64.7z M34.6,62.3h0.5v6.3h-0.5v-0.9c-0.2,0.3-0.4,0.5-0.6,0.7
		c-0.2,0.2-0.5,0.2-0.9,0.2c-0.5,0-0.9-0.2-1.2-0.6c-0.3-0.4-0.5-0.9-0.5-1.6c0-0.6,0.2-1.2,0.5-1.6c0.3-0.4,0.7-0.6,1.3-0.6
		c0.3,0,0.6,0.1,0.8,0.2c0.2,0.1,0.4,0.3,0.6,0.6V62.3z M33.3,64.7c-0.4,0-0.7,0.2-0.9,0.5c-0.2,0.3-0.3,0.7-0.3,1.3
		c0,0.5,0.1,1,0.3,1.3c0.2,0.3,0.5,0.5,0.9,0.5c0.4,0,0.7-0.2,0.9-0.5c0.2-0.3,0.4-0.7,0.4-1.2c0-0.5-0.1-1-0.3-1.3
		C34,64.9,33.7,64.7,33.3,64.7z M31,66v2.6h-0.5v-2.5c0-0.5-0.1-0.8-0.2-1c-0.2-0.2-0.4-0.3-0.8-0.3c-0.4,0-0.7,0.1-0.9,0.4
		c-0.2,0.3-0.3,0.7-0.3,1.2v2.2h-0.5v-4.2h0.5v0.8c0.2-0.3,0.4-0.5,0.6-0.7c0.2-0.1,0.5-0.2,0.9-0.2c0.5,0,0.8,0.1,1,0.4
		C30.9,65,31,65.5,31,66z M26.9,65.9v2.7h-0.5v-0.7c-0.2,0.3-0.4,0.5-0.6,0.6c-0.2,0.1-0.5,0.2-0.8,0.2c-0.4,0-0.7-0.1-1-0.3
		c-0.2-0.2-0.4-0.5-0.4-0.9c0-0.5,0.2-0.8,0.6-1c0.4-0.3,0.9-0.4,1.6-0.4h0.5c0,0,0,0,0-0.1c0,0,0-0.1,0-0.1c0-0.4-0.1-0.6-0.3-0.8
		c-0.2-0.2-0.4-0.3-0.7-0.3c-0.2,0-0.4,0-0.6,0.1c-0.2,0.1-0.4,0.1-0.6,0.3v-0.5c0.2-0.1,0.4-0.2,0.6-0.2c0.2-0.1,0.4-0.1,0.6-0.1
		c0.5,0,0.8,0.1,1.1,0.4C26.8,65,26.9,65.4,26.9,65.9z M25.8,66.5c-0.5,0-0.9,0.1-1.1,0.2c-0.3,0.2-0.4,0.4-0.4,0.7
		c0,0.2,0.1,0.4,0.2,0.6c0.2,0.2,0.4,0.2,0.6,0.2c0.4,0,0.7-0.1,0.9-0.4c0.2-0.2,0.4-0.6,0.4-1v-0.4H25.8z M22.6,63.1v1.3h1v0.4h-1
		v2.5c0,0.3,0,0.6,0.1,0.7c0.1,0.1,0.2,0.2,0.5,0.2c0.1,0,0.1,0,0.2,0c0.1,0,0.1,0,0.2-0.1v0.5c-0.1,0-0.2,0-0.3,0.1
		c-0.1,0-0.2,0-0.3,0c-0.4,0-0.6-0.1-0.8-0.3c-0.2-0.2-0.2-0.5-0.2-1v-2.6h-0.9v-0.4h0.9v-1.1L22.6,63.1z M21.4,64.5l0,0.5
		c-0.1-0.1-0.3-0.1-0.4-0.2c-0.2,0-0.3-0.1-0.5-0.1c-0.5,0-0.8,0.2-1.1,0.5c-0.3,0.3-0.4,0.7-0.4,1.2c0,0.5,0.1,0.9,0.4,1.2
		c0.3,0.3,0.6,0.5,1.1,0.5c0.2,0,0.3,0,0.5-0.1c0.2,0,0.3-0.1,0.5-0.2l0,0.5c-0.2,0.1-0.3,0.1-0.5,0.1c-0.2,0-0.4,0-0.6,0
		c-0.6,0-1.1-0.2-1.5-0.6c-0.4-0.4-0.6-0.9-0.6-1.6c0-0.6,0.2-1.1,0.6-1.5c0.4-0.4,0.9-0.6,1.5-0.6c0.2,0,0.3,0,0.5,0
		C21.1,64.4,21.2,64.5,21.4,64.5z M17.7,66.2c0-0.5-0.1-0.8-0.4-1.1c-0.2-0.3-0.5-0.4-0.8-0.4c-0.3,0-0.6,0.1-0.9,0.4
		c-0.2,0.3-0.4,0.6-0.4,1.1H17.7z M18.2,66.3v0.3h-3c0,0.5,0.2,0.9,0.4,1.2c0.3,0.3,0.6,0.4,1.1,0.4c0.2,0,0.4,0,0.6-0.1
		c0.2-0.1,0.4-0.1,0.6-0.2v0.5c-0.2,0.1-0.4,0.1-0.6,0.2c-0.2,0-0.4,0.1-0.6,0.1c-0.6,0-1.1-0.2-1.5-0.6c-0.4-0.4-0.5-0.9-0.5-1.6
		c0-0.7,0.2-1.2,0.5-1.6c0.3-0.4,0.8-0.6,1.3-0.6c0.5,0,0.9,0.2,1.2,0.5C18.1,65.2,18.2,65.7,18.2,66.3z M14.3,66v2.6h-0.5v-2.5
		c0-0.5-0.1-0.8-0.2-1c-0.2-0.2-0.4-0.3-0.8-0.3c-0.4,0-0.7,0.1-0.9,0.4c-0.2,0.3-0.3,0.7-0.3,1.2v2.2h-0.5v-4.2h0.5v0.8
		c0.2-0.3,0.4-0.5,0.6-0.7c0.2-0.1,0.5-0.2,0.9-0.2c0.5,0,0.8,0.1,1,0.4C14.1,65,14.3,65.5,14.3,66z M8.4,64.3
		c0.6,0,1.1,0.2,1.4,0.6c0.4,0.4,0.5,0.9,0.5,1.6c0,0.7-0.2,1.2-0.5,1.6c-0.4,0.4-0.8,0.6-1.4,0.6c-0.6,0-1.1-0.2-1.4-0.6
		c-0.4-0.4-0.5-0.9-0.5-1.6c0-0.7,0.2-1.2,0.5-1.6C7.3,64.5,7.8,64.3,8.4,64.3z M8.4,64.7c-0.4,0-0.8,0.2-1,0.5
		C7.1,65.5,7,66,7,66.5c0,0.5,0.1,0.9,0.4,1.3c0.3,0.3,0.6,0.5,1,0.5c0.4,0,0.8-0.2,1-0.5c0.3-0.3,0.4-0.7,0.4-1.3
		c0-0.5-0.1-1-0.4-1.3C9.1,64.9,8.8,64.7,8.4,64.7z M6.4,62.9v0.5c-0.2-0.1-0.5-0.2-0.7-0.2c-0.2,0-0.4-0.1-0.6-0.1
		c-0.8,0-1.4,0.2-1.8,0.7c-0.4,0.4-0.7,1.1-0.7,1.9c0,0.7,0.2,1.3,0.7,1.8c0.4,0.4,1,0.6,1.8,0.6c0.2,0,0.4,0,0.6-0.1
		C6,68,6.2,68,6.4,67.9v0.5c-0.2,0.1-0.4,0.1-0.6,0.1c-0.2,0-0.5,0-0.7,0c-0.9,0-1.6-0.3-2.1-0.8c-0.5-0.5-0.8-1.2-0.8-2.1
		c0-0.9,0.3-1.6,0.8-2.2c0.6-0.5,1.3-0.8,2.2-0.8c0.2,0,0.5,0,0.7,0C6.1,62.8,6.3,62.8,6.4,62.9z"/>
	<path class="st0" d="M108,14.5h12.4v24.8c0,1.9,0.3,3.2,0.9,3.9c0.6,0.6,1.8,1,3.7,1h0.6v12.1h-3.3c-4.5,0-8.1-1.3-10.6-4
		c-1.2-1.2-2-2.6-2.7-4.3c2-3.6,3-7.7,3-12.3c0-5.3-1.4-10-4.1-14V14.5z"/>
	<path class="st0" d="M16,9.9l0,5.9C5.9,19.7,2.6,28.6,2.6,28.1L2.7,10L16,9.9z"/>
	<path class="st0" d="M2.6,55.1l0-20.9c0-1.8,10.4-23.1,36.6-19l0.1,39.9l-11.7,0L27.7,28c0,0-10.5,1.9-10.6,12.3l-0.1,14.9
		L2.6,55.1z"/>
	<path class="st0" d="M70.4,23.9c-1.8,3.5-2.7,7.4-2.7,11.7c0,4,0.8,7.6,2.3,10.9c-0.8,0.2-1.6,0.3-2.5,0.3l-11.6,0L55.7,39l6.6,0
		c0-10.4-8.2-11-8.2-11l0.1,27.2l-11.7,0l0.1-39.9C57.7,13.5,66,18,70.4,23.9"/>
	<path class="st0" d="M103.7,20.7c-3.7-4.2-8.2-6.2-13.5-6.2c-5.5,0-10.2,2.1-14,6.2c-3.8,4.1-5.7,9.1-5.7,15c0,5.9,1.9,10.9,5.7,15
		c3.8,4.1,8.4,6.2,13.8,6.2c5.4,0,10-2.1,13.8-6.2c3.8-4.1,5.7-9.1,5.7-15C109.3,29.9,107.4,24.9,103.7,20.7z M95.7,42.3
		c-1.6,1.8-3.5,2.7-5.8,2.7c-2.2,0-4.2-0.9-5.8-2.7c-1.6-1.8-2.4-4-2.4-6.6c0-2.6,0.8-4.8,2.4-6.6c1.6-1.8,3.5-2.7,5.8-2.7
		c2.3,0,4.2,0.9,5.8,2.7c1.6,1.8,2.4,4,2.4,6.6C98,38.3,97.3,40.5,95.7,42.3z"/>
	<g>
		<path class="st0" d="M129,13.8c-0.4-0.6-0.7-1-1-1.3c-0.1-0.1-0.3-0.2-0.5-0.3c0.6,0,1-0.2,1.3-0.6c0.3-0.3,0.5-0.8,0.5-1.2
			c0-0.3-0.1-0.6-0.3-0.9c-0.2-0.3-0.5-0.5-0.8-0.6c-0.3-0.1-0.9-0.2-1.6-0.2h-2.2V15h1v-2.7h0.6c0.4,0,0.6,0.1,0.8,0.2
			c0.3,0.2,0.6,0.7,1.1,1.5l0.6,1h1.3L129,13.8z M126.7,11.4h-1.3V9.5h1.2c0.5,0,0.9,0,1,0.1c0.2,0.1,0.3,0.2,0.4,0.3
			c0.1,0.1,0.2,0.3,0.2,0.5c0,0.3-0.1,0.5-0.3,0.7C127.7,11.3,127.3,11.4,126.7,11.4z"/>
		<path class="st0" d="M132.2,8.7c-0.5-1-1.3-1.7-2.2-2.2C129,6,128,5.7,127,5.7c-1,0-2,0.3-2.9,0.8c-1,0.5-1.7,1.2-2.2,2.2
			c-0.5,1-0.8,2-0.8,3c0,1,0.3,2,0.8,3c0.5,1,1.3,1.7,2.2,2.2c0.9,0.5,1.9,0.8,3,0.8c1,0,2-0.3,3-0.8c0.9-0.5,1.7-1.3,2.2-2.2
			c0.5-0.9,0.8-1.9,0.8-3C133,10.7,132.7,9.7,132.2,8.7z M131.4,14.2c-0.4,0.8-1.1,1.4-1.8,1.8c-0.8,0.4-1.6,0.7-2.5,0.7
			c-0.9,0-1.7-0.2-2.5-0.7c-0.8-0.4-1.4-1.1-1.8-1.8c-0.4-0.8-0.7-1.6-0.7-2.5c0-0.9,0.2-1.7,0.7-2.5c0.4-0.8,1.1-1.4,1.9-1.8
			c0.8-0.4,1.6-0.6,2.5-0.6c0.8,0,1.6,0.2,2.4,0.6c0.8,0.4,1.4,1,1.9,1.8c0.4,0.8,0.7,1.6,0.7,2.5C132,12.6,131.8,13.4,131.4,14.2z"
			/>
	</g>
</g>
</svg>
